# xmcd
#
# Track frame offsets:
#	150
#	15417
#	29799
#	43603
#	57430
#	74356
#	93508
#	106835
#	126613
#	142858
#	156902
#	174165
#
# Disc length: 2506 seconds
#
# Revision: 1
# Processed by: cddbd v1.5.2PL0 Copyright (c) Steve Scherf et al.
# Submitted via: audiograbber 1.83.01
#
DISCID=a209c80c
DTITLE=Inger Nordström 'n' Her Rhinestone Band - It's that thing
DYEAR=2005
DGENRE=Country
TTITLE0=It's that thing
TTITLE1=That's what I'll do
TTITLE2=Changes
TTITLE3=Honkey tonk music
TTITLE4=Who's feeling sorry
TTITLE5=Eye of the hurricane
TTITLE6=Cajun darling
TTITLE7=Spyglass images
TTITLE8=Another bend ahead
TTITLE9=Hey there sister
TTITLE10=A walk on the wild side
TTITLE11=I could need somebody
EXTD=I samband med sitt 15-årsjubileum, spelade INRB in "It's that thing" - tol
EXTD=v låtar i en härlig blandning av countryrock och traditionell country. Ral
EXTD=ph Nilsson på gitarr sätter också sin karaktäristiska prägel på soundet. 
EXTD=\n
EXTT0=
EXTT1=
EXTT2=
EXTT3=
EXTT4=
EXTT5=
EXTT6=
EXTT7=
EXTT8=
EXTT9=
EXTT10=
EXTT11=
PLAYORDER=
